REM DIRINDEX 1\2,1\3,1\4,1\5,1\6
REM DIRNAME folder01,folder02,folder03,folder04,folder05,folder06
TITLE ""
FILE "Disc2Track61.mp3" MP3
  TRACK 01 AUDIO
    TITLE "3:cjc030_03882"
    INDEX 01 00:00:00
  TRACK 02 AUDIO
    TITLE "0:"
    INDEX 01 00:01:17
  TRACK 03 AUDIO
    TITLE "4:cjc030_03883"
    INDEX 01 00:01:24
  TRACK 04 AUDIO
    TITLE "0:"
    INDEX 01 00:02:16
  TRACK 05 AUDIO
    TITLE "5:cjc030_03884"
    INDEX 01 00:02:24
  TRACK 06 AUDIO
    TITLE "0:"
    INDEX 01 00:03:43
  TRACK 07 AUDIO
    TITLE "6:cjc030_03885"
    INDEX 01 00:03:57
  TRACK 08 AUDIO
    TITLE "0:"
    INDEX 01 00:06:45
  TRACK 09 AUDIO
    TITLE "3:cjc030_03886"
    INDEX 01 00:07:17
  TRACK 10 AUDIO
    TITLE "0:"
    INDEX 01 00:08:30
  TRACK 11 AUDIO
    TITLE "4:cjc030_03887"
    INDEX 01 00:08:40
  TRACK 12 AUDIO
    TITLE "0:"
    INDEX 01 00:10:10
  TRACK 13 AUDIO
    TITLE "5:cjc030_03888"
    INDEX 01 00:10:19
  TRACK 14 AUDIO
    TITLE "0:"
    INDEX 01 00:11:29
  TRACK 15 AUDIO
    TITLE "6:cjc030_03889"
    INDEX 01 00:11:44
  TRACK 16 AUDIO
    TITLE "0:"
    INDEX 01 00:14:64
  TRACK 17 AUDIO
    TITLE "3:cjc030_03890"
    INDEX 01 00:15:36
  TRACK 18 AUDIO
    TITLE "0:"
    INDEX 01 00:16:57
  TRACK 19 AUDIO
    TITLE "4:cjc030_03891"
    INDEX 01 00:16:65
  TRACK 20 AUDIO
    TITLE "0:"
    INDEX 01 00:18:17
  TRACK 21 AUDIO
    TITLE "5:cjc030_03892"
    INDEX 01 00:18:25
  TRACK 22 AUDIO
    TITLE "0:"
    INDEX 01 00:19:46
  TRACK 23 AUDIO
    TITLE "6:cjc030_03893"
    INDEX 01 00:19:58
  TRACK 24 AUDIO
    TITLE "0:"
    INDEX 01 00:23:59
  TRACK 25 AUDIO
    TITLE "3:cjc030_03894"
    INDEX 01 00:24:29
  TRACK 26 AUDIO
    TITLE "0:"
    INDEX 01 00:25:72
  TRACK 27 AUDIO
    TITLE "4:cjc030_03895"
    INDEX 01 00:26:05
  TRACK 28 AUDIO
    TITLE "0:"
    INDEX 01 00:27:04
  TRACK 29 AUDIO
    TITLE "5:cjc030_03896"
    INDEX 01 00:27:12
  TRACK 30 AUDIO
    TITLE "0:"
    INDEX 01 00:28:53
  TRACK 31 AUDIO
    TITLE "3:cjc030_03897"
    INDEX 01 00:29:33
  TRACK 32 AUDIO
    TITLE "0:"
    INDEX 01 00:30:34
  TRACK 33 AUDIO
    TITLE "4:cjc030_03898"
    INDEX 01 00:30:40
  TRACK 34 AUDIO
    TITLE "0:"
    INDEX 01 00:32:60
  TRACK 35 AUDIO
    TITLE "5:cjc030_03899"
    INDEX 01 00:32:68
  TRACK 36 AUDIO
    TITLE "0:"
    INDEX 01 00:33:69
  TRACK 37 AUDIO
    TITLE "3:cjc030_03900"
    INDEX 01 00:34:53
  TRACK 38 AUDIO
    TITLE "0:"
    INDEX 01 00:36:03
  TRACK 39 AUDIO
    TITLE "4:cjc030_03901"
    INDEX 01 00:36:13
  TRACK 40 AUDIO
    TITLE "0:"
    INDEX 01 00:39:29
  TRACK 41 AUDIO
    TITLE "5:cjc030_03902"
    INDEX 01 00:39:35
  TRACK 42 AUDIO
    TITLE "0:"
    INDEX 01 00:40:62
  TRACK 43 AUDIO
    TITLE "6:cjc030_03903"
    INDEX 01 00:41:00
  TRACK 44 AUDIO
    TITLE "0:"
    INDEX 01 00:44:71
  TRACK 45 AUDIO
    TITLE "3:cjc030_03904"
    INDEX 01 00:45:45
  TRACK 46 AUDIO
    TITLE "0:"
    INDEX 01 00:46:51
  TRACK 47 AUDIO
    TITLE "4:cjc030_03905"
    INDEX 01 00:46:60
  TRACK 48 AUDIO
    TITLE "0:"
    INDEX 01 00:47:62
  TRACK 49 AUDIO
    TITLE "5:cjc030_03906"
    INDEX 01 00:47:68
  TRACK 50 AUDIO
    TITLE "0:"
    INDEX 01 00:49:02
  TRACK 51 AUDIO
    TITLE "6:cjc030_03907"
    INDEX 01 00:49:14
  TRACK 52 AUDIO
    TITLE "0:"
    INDEX 01 00:53:51
  TRACK 53 AUDIO
    TITLE "3:cjc030_03908"
    INDEX 01 00:54:23
  TRACK 54 AUDIO
    TITLE "0:"
    INDEX 01 00:55:48
  TRACK 55 AUDIO
    TITLE "4:cjc030_03909"
    INDEX 01 00:55:57
  TRACK 56 AUDIO
    TITLE "0:"
    INDEX 01 00:56:63
  TRACK 57 AUDIO
    TITLE "5:cjc030_03910"
    INDEX 01 00:56:69
  TRACK 58 AUDIO
    TITLE "0:"
    INDEX 01 00:58:22
  TRACK 59 AUDIO
    TITLE "3:cjc030_03911"
    INDEX 01 00:58:73
  TRACK 60 AUDIO
    TITLE "0:"
    INDEX 01 01:00:39
  TRACK 61 AUDIO
    TITLE "4:cjc030_03912"
    INDEX 01 01:00:47
  TRACK 62 AUDIO
    TITLE "0:"
    INDEX 01 01:02:24
  TRACK 63 AUDIO
    TITLE "5:cjc030_03913"
    INDEX 01 01:02:34
  TRACK 64 AUDIO
    TITLE "0:"
    INDEX 01 01:04:00
  TRACK 65 AUDIO
    TITLE "6:cjc030_03914"
    INDEX 01 01:04:13
  TRACK 66 AUDIO
    TITLE "0:"
    INDEX 01 01:06:61
